<mxfile host="app.diagrams.net" modified="2021-10-10T13:09:54.023Z" agent="5.0 (Windows NT 10.0; Win64; x64) AppleWebKit/537.36 (KHTML, like Gecko) Chrome/94.0.4606.71 Safari/537.36" etag="hYYZmDOVhoytntxkxJxE" version="15.5.0" type="github">
  <diagram id="hrG0lvm94T-ORlDsjDHe" name="Page-1">
    <mxGraphModel dx="1921" dy="1058" grid="1" gridSize="10" guides="1" tooltips="1" connect="1" arrows="1" fold="1" page="1" pageScale="1" pageWidth="827" pageHeight="1169" math="0" shadow="0">
      <root>
        <mxCell id="0" />
        <mxCell id="1" parent="0" />
        <mxCell id="o1gG_8JRUOC0xB8v2VZh-59" value="" style="group;rounded=1;" vertex="1" connectable="0" parent="1">
          <mxGeometry x="10" y="335" width="790" height="125" as="geometry" />
        </mxCell>
        <mxCell id="o1gG_8JRUOC0xB8v2VZh-57" value="프레스기 1" style="whiteSpace=wrap;html=1;fontSize=17;fillColor=#f5f5f5;strokeColor=#666666;fontColor=#333333;strokeWidth=3;rounded=1;" vertex="1" parent="o1gG_8JRUOC0xB8v2VZh-59">
          <mxGeometry x="-20" y="80" width="110" height="30" as="geometry" />
        </mxCell>
        <mxCell id="o1gG_8JRUOC0xB8v2VZh-58" value="" style="group;rounded=1;" vertex="1" connectable="0" parent="o1gG_8JRUOC0xB8v2VZh-59">
          <mxGeometry x="110" width="680" height="125" as="geometry" />
        </mxCell>
        <mxCell id="o1gG_8JRUOC0xB8v2VZh-28" value="" style="shape=table;html=1;whiteSpace=wrap;startSize=0;container=1;collapsible=0;childLayout=tableLayout;fontSize=17;strokeWidth=3;rounded=1;" vertex="1" parent="o1gG_8JRUOC0xB8v2VZh-58">
          <mxGeometry y="65" width="680" height="60" as="geometry" />
        </mxCell>
        <mxCell id="o1gG_8JRUOC0xB8v2VZh-29" value="" style="shape=partialRectangle;html=1;whiteSpace=wrap;collapsible=0;dropTarget=0;pointerEvents=0;fillColor=none;top=0;left=0;bottom=0;right=0;points=[[0,0.5],[1,0.5]];portConstraint=eastwest;rounded=1;" vertex="1" parent="o1gG_8JRUOC0xB8v2VZh-28">
          <mxGeometry width="680" height="60" as="geometry" />
        </mxCell>
        <mxCell id="o1gG_8JRUOC0xB8v2VZh-30" value="7" style="shape=partialRectangle;html=1;whiteSpace=wrap;connectable=0;fillColor=none;top=0;left=0;bottom=0;right=0;overflow=hidden;pointerEvents=1;fontSize=17;rounded=1;" vertex="1" parent="o1gG_8JRUOC0xB8v2VZh-29">
          <mxGeometry width="68" height="60" as="geometry">
            <mxRectangle width="68" height="60" as="alternateBounds" />
          </mxGeometry>
        </mxCell>
        <mxCell id="o1gG_8JRUOC0xB8v2VZh-31" value="2" style="shape=partialRectangle;html=1;whiteSpace=wrap;connectable=0;fillColor=none;top=0;left=0;bottom=0;right=0;overflow=hidden;pointerEvents=1;fontSize=17;rounded=1;" vertex="1" parent="o1gG_8JRUOC0xB8v2VZh-29">
          <mxGeometry x="68" width="68" height="60" as="geometry">
            <mxRectangle width="68" height="60" as="alternateBounds" />
          </mxGeometry>
        </mxCell>
        <mxCell id="o1gG_8JRUOC0xB8v2VZh-32" value="..." style="shape=partialRectangle;html=1;whiteSpace=wrap;connectable=0;fillColor=none;top=0;left=0;bottom=0;right=0;overflow=hidden;pointerEvents=1;fontSize=17;rounded=1;" vertex="1" parent="o1gG_8JRUOC0xB8v2VZh-29">
          <mxGeometry x="136" width="68" height="60" as="geometry">
            <mxRectangle width="68" height="60" as="alternateBounds" />
          </mxGeometry>
        </mxCell>
        <mxCell id="o1gG_8JRUOC0xB8v2VZh-43" value="5" style="shape=partialRectangle;html=1;whiteSpace=wrap;connectable=0;fillColor=none;top=0;left=0;bottom=0;right=0;overflow=hidden;pointerEvents=1;fontSize=17;rounded=1;" vertex="1" parent="o1gG_8JRUOC0xB8v2VZh-29">
          <mxGeometry x="204" width="68" height="60" as="geometry">
            <mxRectangle width="68" height="60" as="alternateBounds" />
          </mxGeometry>
        </mxCell>
        <mxCell id="o1gG_8JRUOC0xB8v2VZh-44" value="4" style="shape=partialRectangle;html=1;whiteSpace=wrap;connectable=0;fillColor=none;top=0;left=0;bottom=0;right=0;overflow=hidden;pointerEvents=1;fontSize=17;rounded=1;" vertex="1" parent="o1gG_8JRUOC0xB8v2VZh-29">
          <mxGeometry x="272" width="68" height="60" as="geometry">
            <mxRectangle width="68" height="60" as="alternateBounds" />
          </mxGeometry>
        </mxCell>
        <mxCell id="o1gG_8JRUOC0xB8v2VZh-45" value="0.51" style="shape=partialRectangle;html=1;whiteSpace=wrap;connectable=0;fillColor=none;top=0;left=0;bottom=0;right=0;overflow=hidden;pointerEvents=1;fontSize=17;rounded=1;" vertex="1" parent="o1gG_8JRUOC0xB8v2VZh-29">
          <mxGeometry x="340" width="68" height="60" as="geometry">
            <mxRectangle width="68" height="60" as="alternateBounds" />
          </mxGeometry>
        </mxCell>
        <mxCell id="o1gG_8JRUOC0xB8v2VZh-46" value="0.26" style="shape=partialRectangle;html=1;whiteSpace=wrap;connectable=0;fillColor=none;top=0;left=0;bottom=0;right=0;overflow=hidden;pointerEvents=1;fontSize=17;rounded=1;" vertex="1" parent="o1gG_8JRUOC0xB8v2VZh-29">
          <mxGeometry x="408" width="68" height="60" as="geometry">
            <mxRectangle width="68" height="60" as="alternateBounds" />
          </mxGeometry>
        </mxCell>
        <mxCell id="o1gG_8JRUOC0xB8v2VZh-47" value="-0.14" style="shape=partialRectangle;html=1;whiteSpace=wrap;connectable=0;fillColor=none;top=0;left=0;bottom=0;right=0;overflow=hidden;pointerEvents=1;fontSize=17;rounded=1;" vertex="1" parent="o1gG_8JRUOC0xB8v2VZh-29">
          <mxGeometry x="476" width="68" height="60" as="geometry">
            <mxRectangle width="68" height="60" as="alternateBounds" />
          </mxGeometry>
        </mxCell>
        <mxCell id="o1gG_8JRUOC0xB8v2VZh-48" value="0.71" style="shape=partialRectangle;html=1;whiteSpace=wrap;connectable=0;fillColor=none;top=0;left=0;bottom=0;right=0;overflow=hidden;pointerEvents=1;fontSize=17;rounded=1;" vertex="1" parent="o1gG_8JRUOC0xB8v2VZh-29">
          <mxGeometry x="544" width="68" height="60" as="geometry">
            <mxRectangle width="68" height="60" as="alternateBounds" />
          </mxGeometry>
        </mxCell>
        <mxCell id="o1gG_8JRUOC0xB8v2VZh-49" value="-0.35" style="shape=partialRectangle;html=1;whiteSpace=wrap;connectable=0;fillColor=none;top=0;left=0;bottom=0;right=0;overflow=hidden;pointerEvents=1;fontSize=17;rounded=1;" vertex="1" parent="o1gG_8JRUOC0xB8v2VZh-29">
          <mxGeometry x="612" width="68" height="60" as="geometry">
            <mxRectangle width="68" height="60" as="alternateBounds" />
          </mxGeometry>
        </mxCell>
        <mxCell id="o1gG_8JRUOC0xB8v2VZh-50" value="" style="shape=curlyBracket;whiteSpace=wrap;html=1;flipH=1;rotation=-90;rounded=1;" vertex="1" parent="o1gG_8JRUOC0xB8v2VZh-58">
          <mxGeometry x="160" y="-120" width="20" height="330" as="geometry" />
        </mxCell>
        <mxCell id="o1gG_8JRUOC0xB8v2VZh-52" value="" style="shape=curlyBracket;whiteSpace=wrap;html=1;flipH=1;rotation=-90;rounded=1;" vertex="1" parent="o1gG_8JRUOC0xB8v2VZh-58">
          <mxGeometry x="500" y="-120" width="20" height="330" as="geometry" />
        </mxCell>
        <mxCell id="o1gG_8JRUOC0xB8v2VZh-53" value="가열로에 장입할 작업의 순번" style="text;html=1;align=center;verticalAlign=middle;resizable=0;points=[];autosize=1;strokeColor=none;fillColor=none;fontSize=17;rounded=1;" vertex="1" parent="o1gG_8JRUOC0xB8v2VZh-58">
          <mxGeometry x="55" width="230" height="30" as="geometry" />
        </mxCell>
        <mxCell id="o1gG_8JRUOC0xB8v2VZh-54" value="프레스기 작업 선택 기준" style="text;html=1;align=center;verticalAlign=middle;resizable=0;points=[];autosize=1;strokeColor=none;fillColor=none;fontSize=17;rounded=1;" vertex="1" parent="o1gG_8JRUOC0xB8v2VZh-58">
          <mxGeometry x="401" width="200" height="30" as="geometry" />
        </mxCell>
        <mxCell id="o1gG_8JRUOC0xB8v2VZh-60" value="" style="group;rounded=1;" vertex="1" connectable="0" parent="1">
          <mxGeometry x="10" y="432" width="790" height="125" as="geometry" />
        </mxCell>
        <mxCell id="o1gG_8JRUOC0xB8v2VZh-62" value="" style="group;strokeWidth=3;rounded=1;" vertex="1" connectable="0" parent="o1gG_8JRUOC0xB8v2VZh-60">
          <mxGeometry x="110" width="680" height="125" as="geometry" />
        </mxCell>
        <mxCell id="o1gG_8JRUOC0xB8v2VZh-63" value="" style="shape=table;html=1;whiteSpace=wrap;startSize=0;container=1;collapsible=0;childLayout=tableLayout;fontSize=17;strokeWidth=3;rounded=1;" vertex="1" parent="o1gG_8JRUOC0xB8v2VZh-62">
          <mxGeometry y="65" width="680" height="60" as="geometry" />
        </mxCell>
        <mxCell id="o1gG_8JRUOC0xB8v2VZh-64" value="" style="shape=partialRectangle;html=1;whiteSpace=wrap;collapsible=0;dropTarget=0;pointerEvents=0;fillColor=none;top=0;left=0;bottom=0;right=0;points=[[0,0.5],[1,0.5]];portConstraint=eastwest;rounded=1;" vertex="1" parent="o1gG_8JRUOC0xB8v2VZh-63">
          <mxGeometry width="680" height="60" as="geometry" />
        </mxCell>
        <mxCell id="o1gG_8JRUOC0xB8v2VZh-65" value="3" style="shape=partialRectangle;html=1;whiteSpace=wrap;connectable=0;fillColor=none;top=0;left=0;bottom=0;right=0;overflow=hidden;pointerEvents=1;fontSize=17;rounded=1;" vertex="1" parent="o1gG_8JRUOC0xB8v2VZh-64">
          <mxGeometry width="68" height="60" as="geometry">
            <mxRectangle width="68" height="60" as="alternateBounds" />
          </mxGeometry>
        </mxCell>
        <mxCell id="o1gG_8JRUOC0xB8v2VZh-66" value="8" style="shape=partialRectangle;html=1;whiteSpace=wrap;connectable=0;fillColor=none;top=0;left=0;bottom=0;right=0;overflow=hidden;pointerEvents=1;fontSize=17;rounded=1;" vertex="1" parent="o1gG_8JRUOC0xB8v2VZh-64">
          <mxGeometry x="68" width="68" height="60" as="geometry">
            <mxRectangle width="68" height="60" as="alternateBounds" />
          </mxGeometry>
        </mxCell>
        <mxCell id="o1gG_8JRUOC0xB8v2VZh-67" value="..." style="shape=partialRectangle;html=1;whiteSpace=wrap;connectable=0;fillColor=none;top=0;left=0;bottom=0;right=0;overflow=hidden;pointerEvents=1;fontSize=17;rounded=1;" vertex="1" parent="o1gG_8JRUOC0xB8v2VZh-64">
          <mxGeometry x="136" width="68" height="60" as="geometry">
            <mxRectangle width="68" height="60" as="alternateBounds" />
          </mxGeometry>
        </mxCell>
        <mxCell id="o1gG_8JRUOC0xB8v2VZh-68" value="6" style="shape=partialRectangle;html=1;whiteSpace=wrap;connectable=0;fillColor=none;top=0;left=0;bottom=0;right=0;overflow=hidden;pointerEvents=1;fontSize=17;rounded=1;" vertex="1" parent="o1gG_8JRUOC0xB8v2VZh-64">
          <mxGeometry x="204" width="68" height="60" as="geometry">
            <mxRectangle width="68" height="60" as="alternateBounds" />
          </mxGeometry>
        </mxCell>
        <mxCell id="o1gG_8JRUOC0xB8v2VZh-69" value="5" style="shape=partialRectangle;html=1;whiteSpace=wrap;connectable=0;fillColor=none;top=0;left=0;bottom=0;right=0;overflow=hidden;pointerEvents=1;fontSize=17;rounded=1;" vertex="1" parent="o1gG_8JRUOC0xB8v2VZh-64">
          <mxGeometry x="272" width="68" height="60" as="geometry">
            <mxRectangle width="68" height="60" as="alternateBounds" />
          </mxGeometry>
        </mxCell>
        <mxCell id="o1gG_8JRUOC0xB8v2VZh-70" value="0.34" style="shape=partialRectangle;html=1;whiteSpace=wrap;connectable=0;fillColor=none;top=0;left=0;bottom=0;right=0;overflow=hidden;pointerEvents=1;fontSize=17;rounded=1;" vertex="1" parent="o1gG_8JRUOC0xB8v2VZh-64">
          <mxGeometry x="340" width="68" height="60" as="geometry">
            <mxRectangle width="68" height="60" as="alternateBounds" />
          </mxGeometry>
        </mxCell>
        <mxCell id="o1gG_8JRUOC0xB8v2VZh-71" value="0.26" style="shape=partialRectangle;html=1;whiteSpace=wrap;connectable=0;fillColor=none;top=0;left=0;bottom=0;right=0;overflow=hidden;pointerEvents=1;fontSize=17;rounded=1;" vertex="1" parent="o1gG_8JRUOC0xB8v2VZh-64">
          <mxGeometry x="408" width="68" height="60" as="geometry">
            <mxRectangle width="68" height="60" as="alternateBounds" />
          </mxGeometry>
        </mxCell>
        <mxCell id="o1gG_8JRUOC0xB8v2VZh-72" value="-0.54" style="shape=partialRectangle;html=1;whiteSpace=wrap;connectable=0;fillColor=none;top=0;left=0;bottom=0;right=0;overflow=hidden;pointerEvents=1;fontSize=17;rounded=1;" vertex="1" parent="o1gG_8JRUOC0xB8v2VZh-64">
          <mxGeometry x="476" width="68" height="60" as="geometry">
            <mxRectangle width="68" height="60" as="alternateBounds" />
          </mxGeometry>
        </mxCell>
        <mxCell id="o1gG_8JRUOC0xB8v2VZh-73" value="0.67" style="shape=partialRectangle;html=1;whiteSpace=wrap;connectable=0;fillColor=none;top=0;left=0;bottom=0;right=0;overflow=hidden;pointerEvents=1;fontSize=17;rounded=1;" vertex="1" parent="o1gG_8JRUOC0xB8v2VZh-64">
          <mxGeometry x="544" width="68" height="60" as="geometry">
            <mxRectangle width="68" height="60" as="alternateBounds" />
          </mxGeometry>
        </mxCell>
        <mxCell id="o1gG_8JRUOC0xB8v2VZh-74" value="0.01" style="shape=partialRectangle;html=1;whiteSpace=wrap;connectable=0;fillColor=none;top=0;left=0;bottom=0;right=0;overflow=hidden;pointerEvents=1;fontSize=17;rounded=1;" vertex="1" parent="o1gG_8JRUOC0xB8v2VZh-64">
          <mxGeometry x="612" width="68" height="60" as="geometry">
            <mxRectangle width="68" height="60" as="alternateBounds" />
          </mxGeometry>
        </mxCell>
        <mxCell id="o1gG_8JRUOC0xB8v2VZh-79" value="프레스기 2" style="whiteSpace=wrap;html=1;fontSize=17;fillColor=#f5f5f5;strokeColor=#666666;fontColor=#333333;strokeWidth=3;rounded=1;" vertex="1" parent="o1gG_8JRUOC0xB8v2VZh-60">
          <mxGeometry x="-20" y="80" width="110" height="30" as="geometry" />
        </mxCell>
      </root>
    </mxGraphModel>
  </diagram>
</mxfile>
